<svg version="1.1" xmlns="http://www.w3.org/2000/svg" viewBox="0 0 512 512">
  <path fill="currentColor" d="M478.7,126.9c-7.4-6.8-22.8-21.4-37.7-35.6c-15.8-15.1-30.7-29.3-33.3-31.4c-7.8-8.9-18.6-14.4-30.5-15.6
	c-12.4-0.5-24.2,4.4-32.5,13.3l-35,33.4c-16.6,8.3-35,12.6-53.9,12.1c-18.6,0.5-37.2-3.8-53.8-12.1l-34.9-33.1
	c-8.4-9-20.3-14.1-32.7-13.4c-11.7,1.1-22.4,6.4-30.1,15c-2.3,2.1-55.3,52.7-71.1,67.2C26,133,21.5,142.2,21,152.1
	c0,10.6,4,20.7,11.3,28.6L78.6,225c9.2,9.2,22.9,12.4,35.1,8.5v179.4c-0.4,14.1,5.1,27.8,15.2,37.8c12.9,11,29.2,17.1,46.1,17.1
	c0.3,0,0.6,0,0.9,0h160.2c0.3,0,0.5,0,0.8,0c17,0,33.4-6,46.5-17.2c10-9.9,15.6-23.6,15.2-37.6V233.5c12.2,3.9,25.6,0.7,35-8.5
	l47-44.7c6.8-7.7,10.5-17.6,10.6-28C490.5,142.5,486.1,133.3,478.7,126.9z M360.2,205.5l0,197.7c0.3,5.4-1.6,10.7-5.1,14.3
	c-7.3,5.8-16.5,8.8-25.8,8.2H181.8c-9.1,0.4-18.1-2.6-25-8c-3.8-3.9-5.7-9.2-5.4-14.7v-197c-0.1-7.9-6.5-14.2-14.3-14.2
	c0,0,0,0-0.1,0c-3.8,0-7.4,1.5-10.1,4.2l-11.3,11.4c-2,1.3-4.5,1.1-6.2-0.7l-42.2-41.2c-1.2-1-2-2.4-2.2-4c-0.2-1.6,0.3-3.1,1.3-4.4
	c0.3-0.3,0.6-0.6,1.1-1.1c12.6-12,50.8-48.1,63.2-59.8l5.1-4.9c2.3-2.7,5.5-4.4,8.5-5c3.5,0.1,6.7,1.7,9.2,4.6
	c21.1,19.9,34.1,32.3,34.3,32.5l2,1.5c20.1,11.1,43.1,16.7,65.6,16.3h1.6c0.9,0,1.9,0,2.8,0c21.9,0,43.6-5.6,63.1-16.5l1.8-1.4
	c0.1-0.1,13.3-12,34.2-32.6c2.2-2.7,5.5-4.2,8.5-4.4c3.5,0.5,6.7,2.3,9.2,5.1l4.5,4.4c12.5,11.9,50.6,48.1,63.9,60.4
	c2.5,1.9,3,5.4,1.1,7.9l0,0c-0.2,0.3-0.4,0.5-0.8,0.8L402,206.2c-1.6,1.6-4.2,1.9-5.7,0.9l-11.7-11.7c-4.1-4.1-10.2-5.4-15.6-3.1
	C363.7,194.5,360.2,199.7,360.2,205.5z" />
</svg>